<?xml version="1.0" standalone="no"?><!DOCTYPE svg PUBLIC "-//W3C//DTD SVG 1.1//EN" "http://www.w3.org/Graphics/SVG/1.1/DTD/svg11.dtd"><svg t="1604980509462" class="icon" viewBox="0 0 1099 1024" version="1.1" xmlns="http://www.w3.org/2000/svg" p-id="14341" xmlns:xlink="http://www.w3.org/1999/xlink" width="214.6484375" height="200"><defs><style type="text/css"></style></defs><path d="M0 265.481481h948.148148v663.703704H0V265.481481z" fill="#EDF0F1" p-id="14342"></path><path d="M0 0h948.148148v265.481481H0V0z" fill="#546A79" p-id="14343"></path><path d="M189.62963 132.740741a56.888889 56.888889 0 1 1-113.777778 0 56.888889 56.888889 0 0 1 113.777778 0" fill="#ED7061" p-id="14344"></path><path d="M360.296296 132.740741a56.888889 56.888889 0 1 1-113.777777 0 56.888889 56.888889 0 0 1 113.777777 0" fill="#F0C41A" p-id="14345"></path><path d="M530.962963 132.740741a56.888889 56.888889 0 1 1-113.777778 0 56.888889 56.888889 0 0 1 113.777778 0" fill="#4FBA6E" p-id="14346"></path><path d="M910.222222 777.481481h-37.925926c-68.892444-27.553185-113.777778-92.178963-113.777777-163.84V549.925926h265.481481v63.715555c0 71.661037-44.885333 136.286815-113.777778 163.84M872.296296 777.481481h37.925926c68.892444 27.553185 113.777778 92.197926 113.777778 163.84V1005.037037H758.518519v-63.715556c0-71.642074 44.885333-136.286815 113.777777-163.84" fill="#D0E8F9" p-id="14347"></path><path d="M701.62963 568.888889h379.259259a18.962963 18.962963 0 1 0 0-37.925926H701.62963a18.962963 18.962963 0 1 0 0 37.925926M1080.869926 986.036148h-341.333333l-0.18963 0.037926H701.62963a18.962963 18.962963 0 1 0 0 37.925926h56.888889l0.189629-0.037926h322.161778a18.962963 18.962963 0 1 0 0-37.925926" fill="#556080" p-id="14348"></path></svg>