<?xml version="1.0" standalone="no"?><!DOCTYPE svg PUBLIC "-//W3C//DTD SVG 1.1//EN" "http://www.w3.org/Graphics/SVG/1.1/DTD/svg11.dtd"><svg t="1605770606635" class="icon" viewBox="0 0 1024 1024" version="1.1" xmlns="http://www.w3.org/2000/svg" p-id="4485" xmlns:xlink="http://www.w3.org/1999/xlink" width="200" height="200"><defs><style type="text/css"></style></defs><path d="M515.466445 1010.25585h-8.270816c-272.693669-0.486519-493.573108-221.609217-493.816368-494.302886v-8.270816c0.486519-272.572039 221.365958-493.329849 493.816368-493.816368h8.270816c272.693669 0.243259 493.816368 221.122699 494.302886 493.816368v8.270816c-0.243259 272.936928-221.487588 494.059627-494.302886 494.302886z" fill="#515151" p-id="4486"></path><path d="M507.195629 77.721345C269.774558 77.964604 77.356456 270.261076 77.113196 507.682148v8.270816c0.243259 237.421071 192.661361 429.839173 430.082433 430.082432h8.270816c237.421071-0.243259 429.839173-192.661361 430.082433-430.082432v-8.270816C945.183989 270.261076 752.887516 77.964604 515.466445 77.721345h-8.270816z" fill="#515151" p-id="4487"></path><path d="M294.708635 616.540682c-12.892743-0.12163-24.325929-8.027557-29.312745-19.947262-4.865186-11.919705-2.189334-25.542226 6.81126-34.66445l219.784773-219.784772c6.081482-6.203112 14.352298-9.608742 22.988003-9.608742 8.635705 0 16.906521 3.52726 22.988004 9.608742l214.311438 214.311438c12.649483 12.649483 12.649483 33.204894 0 45.854377-12.649483 12.649483-33.204894 12.649483-45.854377 0L514.493408 410.013541 317.21012 607.296829c-6.081482 5.838223-14.109039 9.243853-22.501485 9.243853z m0 0" fill="#FFFFFF" p-id="4488"></path></svg>